<?xml version="1.0" encoding="utf-8"?>
<!-- Generator: Adobe Illustrator 23.0.1, SVG Export Plug-In . SVG Version: 6.00 Build 0)  -->
<svg version="1.1" id="Layer_1" xmlns="http://www.w3.org/2000/svg" xmlns:xlink="http://www.w3.org/1999/xlink" x="0px" y="0px"
	 viewBox="0 0 100 100" style="enable-background:new 0 0 100 100;" xml:space="preserve">
<style type="text/css">
	.st0{fill:#FFFFFF;}
	.st1{fill:none;}
</style>
<g>
	<polygon class="st0" points="64.2,55.7 55.1,47.5 55.1,47.5 55,47.5 55,47.5 55,47.5 46,55.7 55,52.9 55.1,52.9 	"/>
	<g>
		<polygon class="st0" points="55.1,47.5 58.1,39.2 64.8,38.4 		"/>
		<polygon class="st0" points="71.5,41.1 64.8,38.4 64.5,27.3 		"/>
		<polygon class="st0" points="66.2,22.3 73,22.3 64.5,27.3 		"/>
	</g>
	<polygon class="st0" points="55,47.5 52.1,39.2 45.4,38.4 	"/>
	<polygon class="st0" points="38.7,41.1 45.4,38.4 45.5,27.3 	"/>
	<polygon class="st0" points="43.9,22.3 37.2,22.3 45.5,27.3 	"/>
	<path class="st0" d="M78.3,5.8C72.2,11.6,68.1,9,66,8.6c-1.1-0.5-2.5-0.7-4-0.7c-3.7,0-6.6,1.6-6.6,3.5c0,0.7,0.3,1.4,1,1.9
		c0.7-0.7,1.7-1.1,3-1.5l0,0c1.3-0.2,3.5-0.5,6.2,0.2c0.2,0.1,0.5,0.1,0.8,0.2l0,0c0.3,0.1,0.6,0.1,0.8,0.2c0.1,0,0.2,0,0.3,0.1
		c6.9,1.5,10.9-1.9,10.9-1.9L78.3,5.8z"/>
	<path class="st0" d="M54.5,65.4c0,0-3.8,0-5.6-0.9c-3.3-1.6-4-6.6-4.5-10.8c0-0.5-3.2-1.5-4.7-2.9c-2.4-2.2-2.1-9.2-2.1-9.6
		c0-0.5-3.9-2.4-3.9-6.6c0-1.8,0-11.9,0-11.9c-2.5-3.2-4.2-3.2-6.2-2.6c-2.5,0.8-3.3,2.6-5.9,3.1c0,0.6,0,30.8,0,30.8
		c0,9.3,1.7,15.7,11.2,22.9c8.8,6.6,15.7,6.4,21.6,17.3C54.6,94.4,54.5,65.4,54.5,65.4z"/>
</g>
<line class="st1" x1="-43.6" y1="-9" x2="136.6" y2="-9"/>
</svg>
