<?xml version="1.0" encoding="utf-8"?>
<!-- Generator: Adobe Illustrator 23.0.1, SVG Export Plug-In . SVG Version: 6.00 Build 0)  -->
<svg version="1.1" id="Layer_1" xmlns="http://www.w3.org/2000/svg" xmlns:xlink="http://www.w3.org/1999/xlink" x="0px" y="0px"
	 viewBox="0 0 100 100" style="enable-background:new 0 0 100 100;" xml:space="preserve">
<style type="text/css">
	.st0{fill:#FFFFFF;}
</style>
<g>
	<polygon class="st0" points="61.9,54.8 54.3,47.9 54.3,47.9 54.2,47.9 54.2,47.9 54.2,47.9 46.7,54.8 54.2,52.4 54.3,52.4 	"/>
	<g>
		<polygon class="st0" points="54.3,47.9 56.8,41 62.4,40.3 		"/>
		<polygon class="st0" points="67.9,42.6 62.4,40.3 62.1,31.1 		"/>
		<polygon class="st0" points="63.5,26.9 69.2,26.9 62.1,31.1 		"/>
	</g>
	<polygon class="st0" points="54.2,47.9 51.8,41 46.2,40.3 	"/>
	<polygon class="st0" points="40.6,42.6 46.2,40.3 46.2,31.1 	"/>
	<polygon class="st0" points="44.9,26.9 39.3,26.9 46.2,31.1 	"/>
	<path class="st0" d="M73.6,13.1c-5.1,4.8-8.5,2.7-10.3,2.3c-0.9-0.4-2.1-0.6-3.3-0.6c-3.1,0-5.5,1.3-5.5,2.9c0,0.6,0.3,1.2,0.8,1.6
		c0.6-0.6,1.4-0.9,2.5-1.3l0,0c1.1-0.2,2.9-0.4,5.2,0.2c0.2,0.1,0.4,0.1,0.7,0.2l0,0c0.3,0.1,0.5,0.1,0.7,0.2c0.1,0,0.2,0,0.3,0.1
		c5.8,1.3,9.1-1.6,9.1-1.6L73.6,13.1z"/>
	<path class="st0" d="M53.8,62.9c0,0-3.2,0-4.7-0.8c-2.8-1.3-3.3-5.5-3.8-9c0-0.4-2.7-1.3-3.9-2.4c-2-1.8-1.8-7.7-1.8-8
		c0-0.4-3.3-2-3.3-5.5c0-1.5,0-9.9,0-9.9c-2.1-2.7-3.5-2.7-5.2-2.2c-2.1,0.7-2.8,2.2-4.9,2.6c0,0.5,0,25.7,0,25.7
		c0,7.8,1.4,13.1,9.3,19.1c7.3,5.5,13.1,5.3,18,14.4C53.8,87.1,53.8,62.9,53.8,62.9z"/>
</g>
</svg>
